<mxfile host="app.diagrams.net" agent="Mozilla/5.0 (Windows NT 10.0; Win64; x64) AppleWebKit/537.36 (KHTML, like Gecko) Chrome/137.0.0.0 Safari/537.36" version="27.1.6">
  <diagram name="Page-1" id="UafgdEo3KziPEVlHOdzF">
    <mxGraphModel dx="872" dy="473" grid="1" gridSize="10" guides="1" tooltips="1" connect="1" arrows="1" fold="1" page="1" pageScale="1" pageWidth="850" pageHeight="1100" math="0" shadow="0">
      <root>
        <mxCell id="0" />
        <mxCell id="1" parent="0" />
        <mxCell id="FjqU9u2I_X9mPU7Ro-O5-1" value="" style="ellipse;html=1;shape=startState;fillColor=#000000;strokeColor=#090000;fontSize=16;" parent="1" vertex="1">
          <mxGeometry x="130" y="280" width="30" height="30" as="geometry" />
        </mxCell>
        <mxCell id="FjqU9u2I_X9mPU7Ro-O5-2" value="" style="edgeStyle=orthogonalEdgeStyle;html=1;verticalAlign=bottom;endArrow=open;endSize=8;strokeColor=#000000;rounded=0;fontSize=16;" parent="1" source="FjqU9u2I_X9mPU7Ro-O5-1" edge="1">
          <mxGeometry relative="1" as="geometry">
            <mxPoint x="145" y="490" as="targetPoint" />
          </mxGeometry>
        </mxCell>
        <mxCell id="FjqU9u2I_X9mPU7Ro-O5-3" value="" style="ellipse;html=1;shape=endState;fillColor=#000000;strokeColor=#000000;fontSize=16;" parent="1" vertex="1">
          <mxGeometry x="130" y="490" width="30" height="30" as="geometry" />
        </mxCell>
        <mxCell id="FjqU9u2I_X9mPU7Ro-O5-11" value="discard campaign" style="text;html=1;align=center;verticalAlign=middle;whiteSpace=wrap;rounded=0;fontSize=16;" parent="1" vertex="1">
          <mxGeometry x="115" y="530" width="60" height="30" as="geometry" />
        </mxCell>
        <mxCell id="FjqU9u2I_X9mPU7Ro-O5-12" value="proposed campaign" style="text;html=1;align=center;verticalAlign=middle;whiteSpace=wrap;rounded=0;fontStyle=1;fontSize=16;" parent="1" vertex="1">
          <mxGeometry x="85" y="240" width="125" height="30" as="geometry" />
        </mxCell>
        <mxCell id="FjqU9u2I_X9mPU7Ro-O5-13" value="advice against" style="text;html=1;align=center;verticalAlign=middle;whiteSpace=wrap;rounded=0;fontSize=16;" parent="1" vertex="1">
          <mxGeometry x="80" y="360" width="60" height="80" as="geometry" />
        </mxCell>
        <mxCell id="FjqU9u2I_X9mPU7Ro-O5-14" value="advice satisfactory" style="text;html=1;align=center;verticalAlign=middle;whiteSpace=wrap;rounded=0;fontSize=16;" parent="1" vertex="1">
          <mxGeometry x="170" y="340" width="140" height="30" as="geometry" />
        </mxCell>
        <mxCell id="FjqU9u2I_X9mPU7Ro-O5-16" value="underway campaign" style="rounded=1;whiteSpace=wrap;html=1;fontSize=16;" parent="1" vertex="1">
          <mxGeometry x="380" y="600" width="260" height="40" as="geometry" />
        </mxCell>
        <mxCell id="FjqU9u2I_X9mPU7Ro-O5-19" value="Customer Commissions" style="text;html=1;align=center;verticalAlign=middle;whiteSpace=wrap;rounded=0;fontSize=16;" parent="1" vertex="1">
          <mxGeometry x="480" y="400" width="200" height="30" as="geometry" />
        </mxCell>
        <mxCell id="FjqU9u2I_X9mPU7Ro-O5-20" value="advertisement produced" style="text;html=1;align=center;verticalAlign=middle;whiteSpace=wrap;rounded=0;fontSize=16;" parent="1" vertex="1">
          <mxGeometry x="490" y="540" width="120" height="40" as="geometry" />
        </mxCell>
        <mxCell id="FjqU9u2I_X9mPU7Ro-O5-25" value="" style="group;fontSize=16;" parent="1" vertex="1" connectable="0">
          <mxGeometry x="365" y="830" width="30" height="30" as="geometry" />
        </mxCell>
        <mxCell id="FjqU9u2I_X9mPU7Ro-O5-21" value="" style="endArrow=open;endFill=1;endSize=12;html=1;rounded=0;entryX=1;entryY=0;entryDx=0;entryDy=0;exitX=0.423;exitY=1;exitDx=0;exitDy=0;exitPerimeter=0;fontSize=16;" parent="FjqU9u2I_X9mPU7Ro-O5-25" source="FjqU9u2I_X9mPU7Ro-O5-16" target="FjqU9u2I_X9mPU7Ro-O5-22" edge="1">
          <mxGeometry width="160" relative="1" as="geometry">
            <mxPoint x="132" y="-80" as="sourcePoint" />
            <mxPoint x="20" y="10" as="targetPoint" />
          </mxGeometry>
        </mxCell>
        <mxCell id="FjqU9u2I_X9mPU7Ro-O5-22" value="" style="ellipse;html=1;shape=endState;fillColor=#000000;strokeColor=#000000;fontSize=16;" parent="FjqU9u2I_X9mPU7Ro-O5-25" vertex="1">
          <mxGeometry width="30" height="30" as="geometry" />
        </mxCell>
        <mxCell id="FjqU9u2I_X9mPU7Ro-O5-26" value="" style="group;fontSize=16;" parent="1" vertex="1" connectable="0">
          <mxGeometry x="700" y="750" width="30" height="30" as="geometry" />
        </mxCell>
        <mxCell id="FjqU9u2I_X9mPU7Ro-O5-23" value="" style="ellipse;html=1;shape=endState;fillColor=#000000;strokeColor=#000000;fontSize=16;" parent="FjqU9u2I_X9mPU7Ro-O5-26" vertex="1">
          <mxGeometry width="30" height="30" as="geometry" />
        </mxCell>
        <mxCell id="FjqU9u2I_X9mPU7Ro-O5-24" value="" style="endArrow=open;endFill=1;endSize=12;html=1;rounded=0;exitX=0.435;exitY=1;exitDx=0;exitDy=0;exitPerimeter=0;entryX=0;entryY=0;entryDx=0;entryDy=0;fontSize=16;" parent="FjqU9u2I_X9mPU7Ro-O5-26" source="FjqU9u2I_X9mPU7Ro-O5-16" target="FjqU9u2I_X9mPU7Ro-O5-23" edge="1">
          <mxGeometry width="160" relative="1" as="geometry">
            <mxPoint x="-70" y="-80" as="sourcePoint" />
            <mxPoint x="90" y="-80" as="targetPoint" />
          </mxGeometry>
        </mxCell>
        <mxCell id="FjqU9u2I_X9mPU7Ro-O5-27" value="completed campaign" style="text;html=1;align=center;verticalAlign=middle;whiteSpace=wrap;rounded=0;fontSize=16;" parent="1" vertex="1">
          <mxGeometry x="680" y="790" width="60" height="30" as="geometry" />
        </mxCell>
        <mxCell id="FjqU9u2I_X9mPU7Ro-O5-28" value="stopped campaign" style="text;html=1;align=center;verticalAlign=middle;whiteSpace=wrap;rounded=0;fontSize=16;" parent="1" vertex="1">
          <mxGeometry x="350" y="870" width="60" height="30" as="geometry" />
        </mxCell>
        <mxCell id="FjqU9u2I_X9mPU7Ro-O5-29" value="final payment made" style="text;html=1;align=center;verticalAlign=middle;whiteSpace=wrap;rounded=0;fontSize=16;" parent="1" vertex="1">
          <mxGeometry x="660" y="690" width="60" height="30" as="geometry" />
        </mxCell>
        <mxCell id="FjqU9u2I_X9mPU7Ro-O5-30" value="customer stops" style="text;html=1;align=center;verticalAlign=middle;whiteSpace=wrap;rounded=0;fontSize=16;" parent="1" vertex="1">
          <mxGeometry x="380" y="710" width="60" height="30" as="geometry" />
        </mxCell>
        <mxCell id="FjqU9u2I_X9mPU7Ro-O5-31" value="" style="endArrow=open;endFill=1;endSize=12;html=1;rounded=0;entryX=0;entryY=0.5;entryDx=0;entryDy=0;exitX=0.8;exitY=0.633;exitDx=0;exitDy=0;exitPerimeter=0;fontSize=16;" parent="1" source="FjqU9u2I_X9mPU7Ro-O5-1" target="FjqU9u2I_X9mPU7Ro-O5-5" edge="1">
          <mxGeometry width="160" relative="1" as="geometry">
            <mxPoint x="200" y="320" as="sourcePoint" />
            <mxPoint x="350" y="300" as="targetPoint" />
          </mxGeometry>
        </mxCell>
        <mxCell id="FjqU9u2I_X9mPU7Ro-O5-32" value="adviced&amp;nbsp;&lt;div&gt;revisioned (approved)&lt;/div&gt;" style="text;html=1;align=center;verticalAlign=middle;whiteSpace=wrap;rounded=0;fontSize=16;" parent="1" vertex="1">
          <mxGeometry x="640" y="270" width="170" height="30" as="geometry" />
        </mxCell>
        <mxCell id="FjqU9u2I_X9mPU7Ro-O5-33" value="" style="group" parent="1" vertex="1" connectable="0">
          <mxGeometry x="390" y="320" width="250" height="40" as="geometry" />
        </mxCell>
        <mxCell id="FjqU9u2I_X9mPU7Ro-O5-10" value="" style="group;fontSize=16;" parent="FjqU9u2I_X9mPU7Ro-O5-33" vertex="1" connectable="0">
          <mxGeometry width="250" height="40" as="geometry" />
        </mxCell>
        <mxCell id="FjqU9u2I_X9mPU7Ro-O5-5" value="recomended campaign" style="rounded=1;arcSize=10;whiteSpace=wrap;html=1;align=center;fontSize=16;" parent="FjqU9u2I_X9mPU7Ro-O5-10" vertex="1">
          <mxGeometry width="250" height="40" as="geometry" />
        </mxCell>
        <mxCell id="FjqU9u2I_X9mPU7Ro-O5-9" value="" style="endArrow=open;endSize=12;dashed=1;html=1;rounded=0;exitX=0.83;exitY=0;exitDx=0;exitDy=0;exitPerimeter=0;fontSize=16;" parent="FjqU9u2I_X9mPU7Ro-O5-10" source="FjqU9u2I_X9mPU7Ro-O5-5" edge="1">
          <mxGeometry width="160" relative="1" as="geometry">
            <mxPoint x="-20" y="110" as="sourcePoint" />
            <mxPoint x="20" as="targetPoint" />
          </mxGeometry>
        </mxCell>
        <mxCell id="FjqU9u2I_X9mPU7Ro-O5-34" value="" style="group" parent="1" vertex="1" connectable="0">
          <mxGeometry x="380" y="470" width="260" height="40" as="geometry" />
        </mxCell>
        <mxCell id="FjqU9u2I_X9mPU7Ro-O5-15" value="commissioned campaign" style="rounded=1;whiteSpace=wrap;html=1;fontSize=16;" parent="FjqU9u2I_X9mPU7Ro-O5-34" vertex="1">
          <mxGeometry width="260" height="40" as="geometry" />
        </mxCell>
        <mxCell id="FjqU9u2I_X9mPU7Ro-O5-18" value="" style="endArrow=open;endFill=1;endSize=12;html=1;rounded=0;exitX=0.385;exitY=1;exitDx=0;exitDy=0;exitPerimeter=0;entryX=0.388;entryY=0;entryDx=0;entryDy=0;entryPerimeter=0;fontSize=16;" parent="FjqU9u2I_X9mPU7Ro-O5-34" source="FjqU9u2I_X9mPU7Ro-O5-15" target="FjqU9u2I_X9mPU7Ro-O5-16" edge="1">
          <mxGeometry width="160" relative="1" as="geometry">
            <mxPoint x="100" y="80" as="sourcePoint" />
            <mxPoint x="100" y="120" as="targetPoint" />
          </mxGeometry>
        </mxCell>
        <mxCell id="FjqU9u2I_X9mPU7Ro-O5-17" value="" style="endArrow=open;endFill=1;endSize=12;html=1;rounded=0;entryX=0.385;entryY=0;entryDx=0;entryDy=0;entryPerimeter=0;fontSize=16;" parent="1" target="FjqU9u2I_X9mPU7Ro-O5-15" edge="1">
          <mxGeometry width="160" relative="1" as="geometry">
            <mxPoint x="480" y="360" as="sourcePoint" />
            <mxPoint x="510" y="660" as="targetPoint" />
          </mxGeometry>
        </mxCell>
        <mxCell id="FjqU9u2I_X9mPU7Ro-O5-39" value="" style="endArrow=none;html=1;rounded=0;" parent="1" edge="1">
          <mxGeometry width="50" height="50" relative="1" as="geometry">
            <mxPoint x="560" y="320" as="sourcePoint" />
            <mxPoint x="630" y="320" as="targetPoint" />
            <Array as="points">
              <mxPoint x="560" y="270" />
              <mxPoint x="640" y="270" />
              <mxPoint x="640" y="300" />
            </Array>
          </mxGeometry>
        </mxCell>
        <mxCell id="FjqU9u2I_X9mPU7Ro-O5-41" value="CM Rejaul Karim" style="text;html=1;align=center;verticalAlign=middle;whiteSpace=wrap;rounded=0;fontSize=16;textShadow=1;" parent="1" vertex="1">
          <mxGeometry x="100" y="650" width="130" height="30" as="geometry" />
        </mxCell>
      </root>
    </mxGraphModel>
  </diagram>
</mxfile>
